<svg xmlns="http://www.w3.org/2000/svg" xmlns:svg="http://www.w3.org/2000/svg" id="svg12199" width="65" height="65" version="1.1"><defs id="defs12201"><pattern id="pattern4286" width="31.622" height="55.578" patternTransform="translate(5.1106472,7.1586637)" patternUnits="userSpaceOnUse"><rect id="rect4284" width="31.622" height="55.578" x="0" y="0" style="fill:none;stroke:none"/></pattern></defs><metadata id="metadata12204"/><g id="layer1" transform="translate(-237.13542,-495.94108)" style="display:inline"><g id="g5031" transform="translate(-3.5135699,-0.63883087)"><g id="g5115" transform="translate(-94.889782,0)"><g id="g11941" transform="translate(40.28218,173.06885)"><g id="g11923"><path style="font-style:normal;font-variant:normal;font-weight:700;font-stretch:normal;font-size:67.76039124px;line-height:100%;font-family:'URW Palladio L';text-align:start;writing-mode:lr-tb;text-anchor:start;fill:#000;fill-opacity:1;stroke:none" id="path7493" d="m 334.29608,348.7611 c -7.04707,2.30385 -8.96068,0.89047 -12.6875,1.09375 l 0,2.4375 3.0625,0.21875 c 1.55848,0.13552 1.75,2.56464 1.75,6.5625 l 0,14.84375 c 0,3.65905 -0.33693,4.17698 -2.4375,4.3125 l -2.375,0.15625 0,2.5 c 0,0 8.75,-0.21875 8.75,-0.21875 1.35521,0 4.61631,0.0832 9.15625,0.21875 l 0,-2.5 -2.375,-0.15625 c -2.10058,-0.13552 -2.4375,-0.65344 -2.4375,-4.3125 l 0,-14.71875 c 0,-2.37161 2.76855,-4.59375 5.75,-4.59375 4.47218,0 6.375,2.36042 6.375,7.78125 l 0,18.5 c 3.86234,-0.13552 5.00958,-0.21875 6.09375,-0.21875 0.94865,0 0.9486,0.0155 6.84375,0.21875 l 0,-2.5 -2.21875,-0.15625 c -2.10057,-0.13552 -2.4375,-0.65344 -2.4375,-4.3125 l 0,-12.625 c 0,-5.21755 -0.61323,-7.79021 -2.375,-9.6875 -1.76177,-1.82952 -4.55474,-2.84375 -7.875,-2.84375 -1.67848,0 -3.07556,0.28397 -4.125,0.875 -0.0627,0.0353 -0.12739,0.0562 -0.1875,0.0937 -2.34944,1.14904 -4.33004,2.66823 -5.84375,4.375 l 0,-4.9375 -0.40625,-0.40625 z"/><path id="path7509" d="m 333.29608,348.0111 c -7.04707,2.30385 -8.96068,0.89047 -12.6875,1.09375 l 0,2.4375 3.0625,0.21875 c 1.55848,0.13552 1.75,2.56464 1.75,6.5625 l 0,14.84375 c 0,3.65905 -0.33693,4.17698 -2.4375,4.3125 l -2.375,0.15625 0,2.5 c 0,0 8.75,-0.21875 8.75,-0.21875 1.35521,0 4.61631,0.0832 9.15625,0.21875 l 0,-2.5 -2.375,-0.15625 c -2.10058,-0.13552 -2.4375,-0.65344 -2.4375,-4.3125 l 0,-14.71875 c 0,-2.37161 2.76855,-4.59375 5.75,-4.59375 4.47218,0 6.375,2.36042 6.375,7.78125 l 0,18.5 c 3.86234,-0.13552 5.00958,-0.21875 6.09375,-0.21875 0.94865,0 0.9486,0.0155 6.84375,0.21875 l 0,-2.5 -2.21875,-0.15625 c -2.10057,-0.13552 -2.4375,-0.65344 -2.4375,-4.3125 l 0,-12.625 c 0,-5.21755 -0.61323,-7.79021 -2.375,-9.6875 -1.76177,-1.82952 -4.55474,-2.84375 -7.875,-2.84375 -1.67848,0 -3.07556,0.28397 -4.125,0.875 -0.0627,0.0353 -0.12739,0.0562 -0.1875,0.0937 -2.34944,1.14904 -4.33004,2.66823 -5.84375,4.375 l 0,-4.9375 -0.40625,-0.40625 z" style="font-style:normal;font-variant:normal;font-weight:700;font-stretch:normal;font-size:67.76039124px;line-height:100%;font-family:'URW Palladio L';text-align:start;writing-mode:lr-tb;text-anchor:start;fill:#4beb4a;fill-opacity:1;stroke:none"/></g></g></g></g></g><g id="layer3" transform="translate(-15.135425,0.4210954)" style="display:inline"><g style="display:inline" id="g5054" transform="translate(-225.51357,-497.00101)"><g id="g5056" transform="translate(40.28218,173.06885)"><g id="g5058"><path id="path5070" d="m 222.54608,331.8861 c -0.92778,-0.004 -1.63557,0.17608 -2.4375,0.375 -6.37685,1.63384 -11.19091,5.88703 -12.21875,11.09375 -0.32019,1.19492 -0.40625,2.67048 -0.40625,4.875 l 0,2.90625 c -1.76177,1.21969 -3.10766,1.97833 -5.34375,3.0625 l 0,1.625 5.34375,-0.34375 0,18.4375 c 0,3.72681 -0.33662,4.17698 -2.84375,4.3125 l -2.78125,0.15625 0,2.5 c 8.26676,-0.20328 8.27505,-0.21875 9.5625,-0.21875 0.94864,0 0.956,0.0155 10.78125,0.21875 l 0,-2.5 -3.0625,-0.15625 c -1.82953,-0.0678 -2.98422,-0.53589 -3.1875,-1.28125 -0.13552,-0.60984 -0.1875,-1.405 -0.1875,-3.03125 l 0,-18.4375 8.40625,0 0.71875,-3.9375 -0.25,-0.53125 c -4.40442,0.20328 -6.09683,0.25 -8.875,0.25 l 0,-7.3125 c 0,-2.57489 0.18193,-3.77537 0.65625,-4.65625 0.49308,-0.92454 1.57459,-1.44202 2.9375,-1.53125 0.39044,1.05901 0.8072,1.95501 1.21875,2.4375 1.65201,1.9368 4.5632,2.15201 6.5,0.5 1.72357,-1.47013 2.10038,-3.92209 1,-5.8125 -0.55488,-1.16602 -1.5142,-2.1028 -2.6875,-2.59375 -0.91002,-0.37826 -1.87776,-0.3779 -2.84375,-0.40625 z" style="font-style:normal;font-variant:normal;font-weight:700;font-stretch:normal;font-size:67.76039124px;line-height:100%;font-family:'URW Palladio L';text-align:start;writing-mode:lr-tb;text-anchor:start;fill:#000;fill-opacity:1;stroke:none"/><path style="font-style:normal;font-variant:normal;font-weight:700;font-stretch:normal;font-size:67.76039124px;line-height:100%;font-family:'URW Palladio L';text-align:start;writing-mode:lr-tb;text-anchor:start;fill:#e6e6e6;fill-opacity:1;stroke:none" id="path5086" d="m 221.54608,331.1361 c -0.92778,-0.004 -1.63557,0.17608 -2.4375,0.375 -6.37685,1.63384 -11.19091,5.88703 -12.21875,11.09375 -0.32019,1.19492 -0.40625,2.67048 -0.40625,4.875 l 0,2.90625 c -1.76177,1.21969 -3.10766,1.97833 -5.34375,3.0625 l 0,1.625 5.34375,-0.34375 0,18.4375 c 0,3.72681 -0.33662,4.17698 -2.84375,4.3125 l -2.78125,0.15625 0,2.5 c 8.26676,-0.20328 8.27505,-0.21875 9.5625,-0.21875 0.94864,0 0.956,0.0155 10.78125,0.21875 l 0,-2.5 -3.0625,-0.15625 c -1.82953,-0.0678 -2.98422,-0.53589 -3.1875,-1.28125 -0.13552,-0.60984 -0.1875,-1.405 -0.1875,-3.03125 l 0,-18.4375 8.40625,0 0.71875,-3.9375 -0.25,-0.53125 c -4.40442,0.20328 -6.09683,0.25 -8.875,0.25 l 0,-7.3125 c 0,-2.57489 0.18193,-3.77537 0.65625,-4.65625 0.49308,-0.92454 1.57459,-1.44202 2.9375,-1.53125 0.39044,1.05901 0.8072,1.95501 1.21875,2.4375 1.65201,1.9368 4.5632,2.15201 6.5,0.5 1.72357,-1.47013 2.10038,-3.92209 1,-5.8125 -0.55488,-1.16602 -1.5142,-2.1028 -2.6875,-2.59375 -0.91002,-0.37826 -1.87776,-0.3779 -2.84375,-0.40625 z"/></g></g></g></g></svg>